HIERARCHY
ROOT Hips
{
	OFFSET 0.000000 1.471914 24.280096
	CHANNELS 6 Xposition Yposition Zposition Xrotation Yrotation Zrotation
	JOINT Spine
	{
		OFFSET 0.000000 0.900110 1.860670
		CHANNELS 6 Xposition Yposition Zposition Xrotation Yrotation Zrotation
		JOINT Spine1
		{
			OFFSET 0.000000 0.400320 2.270309
			CHANNELS 6 Xposition Yposition Zposition Xrotation Yrotation Zrotation
			JOINT Spine2
			{
				OFFSET 0.000000 0.200920 2.296560
				CHANNELS 6 Xposition Yposition Zposition Xrotation Yrotation Zrotation
				JOINT Spine3
				{
					OFFSET 0.000000 0.000000 2.305330
					CHANNELS 6 Xposition Yposition Zposition Xrotation Yrotation Zrotation
					JOINT Neck
					{
						OFFSET 0.000000 -0.864490 6.051487
						CHANNELS 6 Xposition Yposition Zposition Xrotation Yrotation Zrotation
						JOINT Head
						{
							OFFSET 0.000000 -0.550429 3.121674
							CHANNELS 6 Xposition Yposition Zposition Xrotation Yrotation Zrotation
							End Site
							{
								OFFSET 0.000000 0.000000 3.731750
							}
						}
					}
					JOINT RightShoulder
					{
						OFFSET -0.788280 -1.313800 4.256718
						CHANNELS 6 Xposition Yposition Zposition Xrotation Yrotation Zrotation
						JOINT RightArm
						{
							OFFSET -3.915130 0.000000 0.000000
							CHANNELS 6 Xposition Yposition Zposition Xrotation Yrotation Zrotation
							JOINT RightForeArm
							{
								OFFSET -6.914910 0.000000 0.000000
								CHANNELS 6 Xposition Yposition Zposition Xrotation Yrotation Zrotation
								JOINT RightHand
								{
									OFFSET -6.096219 0.000000 0.000000
									CHANNELS 6 Xposition Yposition Zposition Xrotation Yrotation Zrotation
									JOINT RightHandEnd
									{
										OFFSET -1.749950 0.000000 0.000000
										CHANNELS 6 Xposition Yposition Zposition Xrotation Yrotation Zrotation
										End Site
										{
											OFFSET -1.749950 0.000000 0.000000
										}
									}
									JOINT RightHandThumb1
									{
										OFFSET -0.699980 -1.166630 -0.466648
										CHANNELS 6 Xposition Yposition Zposition Xrotation Yrotation Zrotation
										End Site
										{
											OFFSET -1.690319 -0.452920 0.000000
										}
									}
								}
							}
						}
					}
					JOINT LeftShoulder
					{
						OFFSET 0.788280 -1.313800 4.256718
						CHANNELS 6 Xposition Yposition Zposition Xrotation Yrotation Zrotation
						JOINT LeftArm
						{
							OFFSET 3.915130 0.000000 0.000000
							CHANNELS 6 Xposition Yposition Zposition Xrotation Yrotation Zrotation
							JOINT LeftForeArm
							{
								OFFSET 6.914910 0.000000 0.000000
								CHANNELS 6 Xposition Yposition Zposition Xrotation Yrotation Zrotation
								JOINT LeftHand
								{
									OFFSET 6.096219 0.000000 0.000000
									CHANNELS 6 Xposition Yposition Zposition Xrotation Yrotation Zrotation
									JOINT LeftHandEnd
									{
										OFFSET 1.749950 0.000000 0.000000
										CHANNELS 6 Xposition Yposition Zposition Xrotation Yrotation Zrotation
										End Site
										{
											OFFSET 1.749950 0.000000 0.000000
										}
									}
									JOINT LeftHandThumb1
									{
										OFFSET 0.699980 -1.166630 -0.466648
										CHANNELS 6 Xposition Yposition Zposition Xrotation Yrotation Zrotation
										End Site
										{
											OFFSET 1.690319 -0.452920 0.000000
										}
									}
								}
							}
						}
					}
				}
			}
		}
	}
	JOINT RightUpLeg
	{
		OFFSET -2.338570 -0.252550 -0.551512
		CHANNELS 6 Xposition Yposition Zposition Xrotation Yrotation Zrotation
		JOINT RightLeg
		{
			OFFSET 0.000000 0.000000 -10.744959
			CHANNELS 6 Xposition Yposition Zposition Xrotation Yrotation Zrotation
			JOINT RightFoot
			{
				OFFSET 0.000000 -0.000001 -10.930849
				CHANNELS 6 Xposition Yposition Zposition Xrotation Yrotation Zrotation
				JOINT RightToeBase
				{
					OFFSET 0.000000 -4.087269 -1.487650
					CHANNELS 6 Xposition Yposition Zposition Xrotation Yrotation Zrotation
					End Site
					{
						OFFSET 0.000000 -1.891870 0.000000
					}
				}
			}
		}
	}
	JOINT LeftUpLeg
	{
		OFFSET 2.338570 -0.252550 -0.551512
		CHANNELS 6 Xposition Yposition Zposition Xrotation Yrotation Zrotation
		JOINT LeftLeg
		{
			OFFSET 0.000000 0.000000 -10.744959
			CHANNELS 6 Xposition Yposition Zposition Xrotation Yrotation Zrotation
			JOINT LeftFoot
			{
				OFFSET 0.000000 -0.000001 -10.930849
				CHANNELS 6 Xposition Yposition Zposition Xrotation Yrotation Zrotation
				JOINT LeftToeBase
				{
					OFFSET 0.000000 -4.087269 -1.487650
					CHANNELS 6 Xposition Yposition Zposition Xrotation Yrotation Zrotation
					End Site
					{
						OFFSET 0.000000 -1.891870 0.000000
					}
				}
			}
		}
	}
}
MOTION
Frames: 6
Frame Time: 0.041667
-0.000015 26.544888 40.017353 -13.941947 6.530917 -13.704236 -0.000021 0.900098 1.860691 32.765613 -4.457474 -1.574019 0.000011 0.400282 2.270334 -0.000005 -0.000001 0.000010 0.000013 0.200874 2.296513 0.000001 0.000000 0.000003 0.000029 0.000006 2.305337 -0.000044 0.000001 0.545049 -0.000014 -0.864464 6.051455 -1.032731 -4.392759 -177.920103 0.000015 -0.550433 3.121693 -0.000002 0.000002 -0.000006 -0.788274 -1.313739 4.256789 -123.184757 48.464410 -61.371353 -3.915109 -0.000004 -0.000034 -0.000000 -0.000002 0.000002 -6.914915 -0.000004 0.000008 0.000004 0.000026 -27.314312 -6.096192 0.000003 0.000013 -0.000098 -0.000050 -0.000091 -1.749907 -0.000028 0.000026 -0.000000 0.000002 -0.000000 -0.699963 -1.166632 -0.466656 -0.000009 -0.000004 0.000001 0.788262 -1.313774 4.256734 -138.411092 -56.943427 46.350897 3.915178 0.000013 -0.000031 0.000002 0.000002 0.000004 6.914929 -0.000034 0.000001 0.000007 -0.000028 27.733305 6.096221 0.000077 -0.000014 -0.000009 0.000033 0.000022 1.749971 -0.000010 0.000024 -0.000001 -0.000007 -0.000001 0.699953 -1.166617 -0.466633 0.000009 -0.000003 -0.000021 -2.338567 -0.252537 -0.551490 19.563991 -2.856998 -0.969740 0.000015 -0.000022 -10.744973 12.436490 4.865784 -1.197220 -0.000020 0.000082 -10.930830 -0.000022 -0.000003 0.000002 0.000002 -4.087271 -1.487639 0.000007 0.000002 -0.000002 2.338575 -0.252545 -0.551473 23.542971 -3.707119 -1.162807 -0.000004 -0.000049 -10.744906 7.157457 0.662275 -0.795247 -0.000014 0.000007 -10.930881 0.000017 -0.000004 0.000002 -0.000013 -4.087247 -1.487653 -0.000002 -0.000001 -0.000000 
-0.000006 26.544895 40.017380 -13.420003 6.359389 -13.431593 -0.000022 0.900095 1.860696 32.019292 -4.550644 -1.499706 0.000010 0.400285 2.270336 -0.000006 -0.000002 0.000007 0.000013 0.200880 2.296530 -0.000000 0.000001 0.000002 0.000030 0.000006 2.305349 -0.000044 -0.000001 1.077284 -0.000014 -0.864457 6.051460 -1.415337 -4.607401 -179.001705 0.000016 -0.550438 3.121704 -0.000001 0.000001 -0.000006 -0.788270 -1.313729 4.256793 -122.831827 48.759945 -60.949862 -3.915123 -0.000006 -0.000034 0.000001 -0.000002 -0.000003 -6.914905 -0.000003 0.000004 0.000006 0.000025 -27.020855 -6.096192 0.000002 0.000013 -0.000097 -0.000051 -0.000095 -1.749911 -0.000033 0.000020 -0.000001 0.000001 0.000001 -0.699967 -1.166635 -0.466660 -0.000008 -0.000004 0.000004 0.788264 -1.313769 4.256740 -149.805282 -60.032670 35.180197 3.915171 0.000013 -0.000034 0.000002 0.000000 0.000001 6.914928 -0.000033 -0.000007 0.000009 -0.000020 28.084727 6.096223 0.000079 -0.000017 -0.000014 0.000034 0.000021 1.749974 -0.000010 0.000028 0.000003 -0.000003 0.000002 0.699955 -1.166618 -0.466626 0.000012 -0.000006 -0.000020 -2.338567 -0.252542 -0.551476 19.301556 -2.976004 -0.930603 0.000015 -0.000022 -10.744971 11.943749 4.117073 -1.160634 -0.000021 0.000081 -10.930835 -0.000020 -0.000005 0.000003 0.000003 -4.087265 -1.487639 0.000002 0.000002 -0.000001 2.338574 -0.252549 -0.551466 22.790733 -4.115581 -1.097732 -0.000003 -0.000043 -10.744908 7.383855 0.842538 -0.865504 -0.000013 0.000006 -10.930877 0.000019 -0.000005 0.000004 -0.000014 -4.087241 -1.487651 -0.000002 -0.000000 -0.000001 
-0.000006 26.544895 40.017418 -13.046550 6.105857 -12.852309 -0.000020 0.900102 1.860695 31.559654 -4.594080 -1.455798 0.000011 0.400275 2.270336 -0.000006 -0.000002 0.000005 0.000012 0.200874 2.296518 0.000001 0.000001 0.000001 0.000029 -0.000005 2.305341 -0.000044 -0.000002 1.296409 -0.000014 -0.864457 6.051459 -1.374238 -4.687125 -179.103898 0.000017 -0.550440 3.121700 -0.000001 0.000000 -0.000006 -0.788271 -1.313728 4.256792 -122.995875 49.271407 -60.778227 -3.915110 -0.000004 -0.000038 -0.000004 0.000000 -0.000001 -6.914909 -0.000005 0.000001 0.000005 0.000027 -26.431695 -6.096189 0.000001 0.000017 -0.000091 -0.000052 -0.000092 -1.749910 -0.000028 0.000026 0.000003 0.000003 0.000000 -0.699964 -1.166628 -0.466656 -0.000008 -0.000003 -0.000001 0.788262 -1.313772 4.256729 -163.772377 -61.173893 22.998046 3.915178 0.000007 -0.000031 -0.000002 0.000001 0.000001 6.914926 -0.000033 -0.000003 0.000006 -0.000024 28.245728 6.096224 0.000076 -0.000021 -0.000011 0.000030 0.000026 1.749977 -0.000004 0.000024 -0.000003 -0.000007 -0.000001 0.699954 -1.166610 -0.466633 0.000007 -0.000004 -0.000022 -2.338567 -0.252534 -0.551483 19.065944 -3.379936 -0.904792 0.000014 -0.000017 -10.744968 11.784901 3.868466 -1.219575 -0.000020 0.000078 -10.930836 -0.000020 -0.000004 0.000001 0.000003 -4.087263 -1.487638 0.000001 0.000002 -0.000001 2.338575 -0.252541 -0.551468 21.754943 -4.516174 -1.033786 -0.000004 -0.000043 -10.744905 8.214729 0.784569 -1.016793 -0.000013 0.000010 -10.930877 0.000017 -0.000003 0.000002 -0.000014 -4.087232 -1.487651 -0.000002 -0.000001 -0.000001 
-0.000001 26.544886 40.017410 -12.688161 6.357014 -12.848863 -0.000021 0.900100 1.860699 30.775811 -5.560171 -1.186317 0.000011 0.400278 2.270334 -0.000009 -0.000002 0.000005 0.000012 0.200871 2.296522 -0.000001 0.000001 0.000003 0.000029 -0.000003 2.305345 -0.000044 -0.000002 0.858828 -0.000014 -0.864469 6.051460 -0.244495 -3.686994 -179.113364 0.000016 -0.550438 3.121693 -0.000004 0.000001 -0.000006 -0.788269 -1.313741 4.256790 -123.479848 50.311856 -59.357943 -3.915113 0.000000 -0.000035 -0.000004 0.000001 0.000001 -6.914912 -0.000003 0.000001 0.000004 0.000030 -25.612549 -6.096190 -0.000000 0.000014 -0.000095 -0.000053 -0.000093 -1.749913 -0.000029 0.000019 0.000002 0.000005 0.000000 -0.699962 -1.166631 -0.466656 -0.000006 -0.000002 0.000002 0.788260 -1.313779 4.256735 -173.601552 -59.815949 14.676559 3.915171 0.000014 -0.000031 -0.000002 -0.000001 0.000001 6.914927 -0.000033 -0.000008 0.000002 -0.000018 29.434806 6.096223 0.000072 -0.000011 -0.000008 0.000034 0.000026 1.749975 -0.000006 0.000032 -0.000001 -0.000006 -0.000005 0.699959 -1.166613 -0.466626 0.000009 -0.000006 -0.000021 -2.338567 -0.252535 -0.551479 18.924485 -3.600762 -0.747450 0.000015 -0.000020 -10.744962 11.143589 3.115112 -1.113178 -0.000020 0.000079 -10.930834 -0.000020 -0.000004 0.000002 0.000004 -4.087264 -1.487641 0.000001 0.000002 -0.000001 2.338576 -0.252544 -0.551467 21.364531 -4.976570 -0.846092 -0.000002 -0.000044 -10.744905 8.566445 0.573525 -1.065931 -0.000013 0.000013 -10.930877 0.000015 -0.000004 0.000002 -0.000014 -4.087243 -1.487652 -0.000002 -0.000001 -0.000003 
0.000003 26.544870 40.017403 -12.268307 6.813131 -13.376225 -0.000021 0.900095 1.860696 29.796089 -6.869076 -0.905642 0.000010 0.400279 2.270330 -0.000005 -0.000003 0.000005 0.000013 0.200877 2.296516 0.000001 0.000001 0.000002 0.000030 0.000002 2.305341 -0.000045 0.000000 0.051626 -0.000013 -0.864469 6.051459 0.683248 -2.156403 -178.155485 0.000017 -0.550432 3.121704 -0.000001 0.000000 -0.000005 -0.788272 -1.313738 4.256787 -124.854369 51.916531 -56.998625 -3.915112 0.000000 -0.000031 0.000002 -0.000002 0.000000 -6.914912 -0.000005 0.000005 0.000005 0.000028 -25.498995 -6.096188 -0.000000 0.000013 -0.000096 -0.000053 -0.000094 -1.749908 -0.000031 0.000023 -0.000001 0.000003 -0.000002 -0.699962 -1.166631 -0.466655 -0.000008 -0.000002 -0.000001 0.788262 -1.313776 4.256739 -176.167763 -56.379909 12.500941 3.915174 0.000012 -0.000034 -0.000001 0.000000 0.000000 6.914930 -0.000026 -0.000005 0.000001 -0.000019 31.543569 6.096220 0.000077 -0.000021 -0.000010 0.000032 0.000025 1.749977 -0.000008 0.000032 -0.000003 -0.000003 0.000002 0.699955 -1.166615 -0.466629 0.000007 -0.000009 -0.000026 -2.338568 -0.252539 -0.551480 18.857316 -3.996916 -0.583943 0.000015 -0.000019 -10.744964 10.727309 2.437118 -1.059340 -0.000020 0.000077 -10.930833 -0.000022 -0.000003 0.000001 0.000001 -4.087267 -1.487637 0.000005 0.000003 -0.000001 2.338575 -0.252547 -0.551467 21.147222 -5.368048 -0.657459 -0.000003 -0.000042 -10.744904 8.502316 0.280137 -1.048477 -0.000012 0.000006 -10.930875 0.000012 -0.000005 0.000002 -0.000014 -4.087240 -1.487651 0.000001 0.000000 -0.000002 
0.000007 26.544859 40.017399 -12.148218 7.119653 -13.315280 -0.000021 0.900100 1.860684 28.942305 -8.147532 -0.600600 0.000012 0.400279 2.270334 -0.000006 -0.000003 0.000006 0.000012 0.200873 2.296516 -0.000002 0.000001 0.000000 0.000029 -0.000001 2.305349 -0.000045 0.000000 -0.894080 -0.000012 -0.864473 6.051447 1.568088 -0.350240 -176.824227 0.000016 -0.550433 3.121704 -0.000002 0.000001 -0.000006 -0.788270 -1.313741 4.256788 -125.750913 52.509019 -55.301050 -3.915111 -0.000006 -0.000035 0.000001 -0.000001 -0.000001 -6.914904 -0.000003 0.000001 0.000006 0.000025 -25.831531 -6.096196 0.000000 0.000013 -0.000092 -0.000053 -0.000090 -1.749917 -0.000027 0.000023 -0.000000 0.000004 -0.000002 -0.699974 -1.166629 -0.466656 -0.000009 -0.000003 -0.000001 0.788262 -1.313783 4.256731 -179.648961 -50.930760 10.896208 3.915168 0.000013 -0.000030 0.000000 -0.000001 0.000001 6.914927 -0.000033 0.000001 -0.000000 -0.000011 34.979772 6.096213 0.000073 -0.000016 -0.000016 0.000036 0.000026 1.749978 -0.000007 0.000025 -0.000002 -0.000005 0.000002 0.699959 -1.166616 -0.466632 0.000006 -0.000006 -0.000019 -2.338567 -0.252537 -0.551487 18.860726 -4.612005 -0.396594 0.000015 -0.000020 -10.744967 11.101252 2.259139 -1.109193 -0.000020 0.000079 -10.930831 -0.000020 -0.000003 0.000001 0.000003 -4.087267 -1.487638 0.000008 0.000003 -0.000002 2.338575 -0.252544 -0.551473 21.294143 -5.805324 -0.450139 -0.000003 -0.000045 -10.744910 8.456206 -0.093026 -1.028316 -0.000013 0.000012 -10.930878 0.000014 -0.000004 0.000003 -0.000014 -4.087248 -1.487653 0.000002 -0.000000 0.000001 
